<svg xmlns="http://www.w3.org/2000/svg" viewBox="0 0 800 600" width="100%" height="100%">
  <rect x="150" y="470" width="500" height="50" fill="#e2e8f0"/>
  <!-- Main Central Prang -->
  <path d="M380 470 L385 200 L395 100 L400 50 L405 100 L415 200 L420 470 Z" fill="#cbd5e1"/>
  <!-- Tier Details -->
  <path d="M350 420 H450 L440 370 H360 Z" fill="#f59e0b"/>
  <path d="M365 370 H435 L430 320 H370 Z" fill="#10b981"/>
  <path d="M375 320 H425 L420 260 H380 Z" fill="#f59e0b"/>
  <!-- Side Satellite Prangs -->
  <path d="M230 470 L245 280 L255 280 L270 470 Z" fill="#94a3b8"/>
  <path d="M530 470 L545 280 L555 280 L570 470 Z" fill="#94a3b8"/>
  <!-- Gold Top Spire -->
  <polygon points="400,20 395,50 405,50" fill="#fbbf24"/>
</svg>
