<svg xmlns="http://www.w3.org/2000/svg" viewBox="0 0 800 600" width="100%" height="100%">
  <!-- Sydney Harbor Bridge Silhouette Arc -->
  <path d="M-50 480 Q 200 200 500 450" stroke="#334155" stroke-width="20" fill="none"/>
  <!-- Base Podium -->
  <polygon points="100,500 720,500 680,440 140,440" fill="#475569"/>
  <!-- Shell 1 -->
  <path d="M 200 440 C 220 300, 320 220, 360 220 C 330 310, 320 400, 310 440 Z" fill="#f8fafc"/>
  <!-- Shell 2 -->
  <path d="M 310 440 C 330 310, 420 250, 460 250 C 430 330, 410 410, 400 440 Z" fill="#f1f5f9"/>
  <!-- Shell 3 -->
  <path d="M 400 440 C 420 330, 500 290, 540 290 C 510 360, 490 420, 480 440 Z" fill="#e2e8f0"/>
  <!-- Glass Front Walls -->
  <polygon points="200,440 360,220 310,440" fill="#f59e0b" opacity="0.7"/>
  <polygon points="310,440 460,250 400,440" fill="#f59e0b" opacity="0.7"/>
</svg>
